<svg width="900" height="900" viewBox="0 0 900 900" fill="none" xmlns="http://www.w3.org/2000/svg">
<g clip-path="url(#clip0_433_392)">
<path d="M846.263 585.162C799.968 538.831 735.729 519.203 653.227 541.313L359.043 246.831L362.931 232.128C379.875 168.555 361.567 100.22 315.168 53.8207C267.925 6.54089 200.763 -10.8069 137.244 6.64108C132.793 7.86294 128.741 10.232 125.493 13.5115C122.245 16.791 119.915 20.8658 118.736 25.3284C117.561 29.7901 117.577 34.482 118.783 38.9356C119.989 43.3891 122.342 47.4483 125.607 50.7077L196.442 121.542C217.151 142.302 216.948 175.549 196.493 196.06C176.199 216.408 142.087 216.376 121.874 196.111L51.0252 125.257C47.7607 121.99 43.6953 119.64 39.2361 118.439C34.777 117.239 30.0808 117.231 25.6178 118.417C21.1565 119.604 17.0853 121.942 13.8115 125.196C10.5378 128.452 8.1765 132.509 6.96392 136.963C-10.2293 199.784 6.68444 267.363 54.1542 314.833C100.43 361.142 164.589 380.841 247.137 358.683L541.344 653.166C519.389 735.639 538.328 799.255 585.246 846.173C632.548 893.513 699.743 910.731 763.124 893.34C767.575 892.122 771.625 889.754 774.872 886.472C778.126 883.191 780.452 879.12 781.636 874.655C782.813 870.196 782.799 865.502 781.588 861.044C780.383 856.592 778.029 852.535 774.762 849.275L703.945 778.452C683.236 757.696 683.439 724.445 703.897 703.939C724.445 683.495 758.478 683.821 778.514 703.911L849.365 774.748C852.632 778.009 856.696 780.362 861.155 781.56C865.613 782.758 870.314 782.765 874.772 781.581C879.231 780.397 883.302 778.057 886.576 774.803C889.851 771.549 892.212 767.492 893.423 763.041C910.62 700.228 893.707 632.632 846.263 585.162Z" fill="#B5B5B5"/>
<path d="M282.218 468.605L30.8645 719.986C-10.2701 761.123 -10.2701 828.014 30.8645 869.151C71.9993 910.281 138.891 910.281 180.024 869.151L431.371 617.771L282.218 468.605ZM155.253 787.32C144.952 797.621 128.27 797.621 117.969 787.32C107.67 777.018 107.67 760.334 117.969 750.039L277.895 590.082C288.194 579.783 304.881 579.783 315.179 590.082C325.477 600.381 325.477 617.066 315.179 627.365L155.253 787.32ZM892.26 53.1792L846.803 7.72387C842.642 3.56614 837.215 0.917183 831.385 0.19802C825.549 -0.521142 819.637 0.730758 814.597 3.75475L674.767 87.6427C660.055 96.4689 657.556 116.766 669.685 128.897L680.815 140.024L503.312 316.802L577.905 391.395L755.412 214.617L771.085 230.298C783.215 242.425 803.513 239.929 812.34 225.216L896.227 85.3878C899.252 80.3444 900.505 74.4362 899.785 68.6003C899.065 62.7648 896.414 57.337 892.26 53.1792Z" fill="#B5B5B5"/>
</g>
<defs>
<clipPath id="clip0_433_392">
<rect width="900" height="900" fill="white"/>
</clipPath>
</defs>
</svg>
