<svg width="2654" height="1031" viewBox="0 0 2654 1031" fill="none" xmlns="http://www.w3.org/2000/svg">
<path d="M1120.73 313.806L1077 178.329L1105.15 177.553L1136.12 289.544L1166.33 177.553L1194.48 178.329L1150.94 313.806H1120.73Z" fill="black"/>
<path d="M1215.67 313.806V177.941H1241.38V313.806H1215.67Z" fill="black"/>
<path d="M1364.45 182.405L1359.57 203.173C1357.07 202.267 1354.25 201.491 1351.13 200.844C1348 200.067 1344.75 199.421 1341.37 198.903C1338.11 198.385 1334.8 197.997 1331.42 197.738C1328.04 197.48 1324.85 197.35 1321.85 197.35C1313.59 197.35 1307.09 198.709 1302.33 201.426C1297.7 204.014 1295.39 207.961 1295.39 213.266C1295.39 215.854 1296.01 218.183 1297.26 220.253C1298.64 222.194 1300.71 224.07 1303.46 225.882C1306.21 227.693 1309.84 229.44 1314.34 231.122C1318.97 232.804 1324.48 234.551 1330.86 236.363C1337.61 238.304 1343.49 240.568 1348.5 243.156C1353.5 245.615 1357.63 248.397 1360.89 251.502C1364.26 254.607 1366.7 258.231 1368.21 262.371C1369.83 266.382 1370.65 271.041 1370.65 276.346C1370.65 284.757 1368.46 291.873 1364.08 297.696C1359.82 303.519 1353.5 307.983 1345.12 311.088C1336.86 314.194 1326.73 315.747 1314.72 315.747C1310.84 315.747 1306.71 315.553 1302.33 315.164C1297.95 314.776 1293.51 314.259 1289.01 313.612C1284.63 312.835 1280.37 311.929 1276.24 310.894C1272.12 309.859 1268.43 308.695 1265.17 307.401L1270.24 286.827C1273.62 287.991 1277.25 289.091 1281.12 290.126C1285 291.032 1288.94 291.873 1292.95 292.65C1296.95 293.297 1300.96 293.814 1304.96 294.202C1308.96 294.591 1312.72 294.785 1316.22 294.785C1322.35 294.785 1327.48 294.202 1331.61 293.038C1335.74 291.744 1338.8 289.868 1340.8 287.409C1342.93 284.951 1344 281.975 1344 278.481C1344 275.764 1343.18 273.37 1341.56 271.299C1339.93 269.229 1337.49 267.418 1334.24 265.865C1330.98 264.183 1326.79 262.436 1321.66 260.624C1316.66 258.813 1310.78 256.807 1304.02 254.607C1298.02 252.408 1292.76 250.079 1288.26 247.62C1283.88 245.162 1280.25 242.38 1277.37 239.274C1274.49 236.039 1272.3 232.416 1270.8 228.405C1269.43 224.394 1268.74 219.865 1268.74 214.819C1268.74 209.125 1269.8 203.949 1271.93 199.291C1274.06 194.503 1277.25 190.363 1281.5 186.869C1285.88 183.376 1291.38 180.723 1298.02 178.911C1304.77 176.97 1312.65 176 1321.66 176C1327.04 176 1332.36 176.323 1337.61 176.97C1342.99 177.488 1348 178.264 1352.63 179.3C1357.38 180.205 1361.32 181.24 1364.45 182.405Z" fill="black"/>
<path d="M1487.39 201.426H1448.17V313.806H1422.45V201.426H1383.04V177.941H1487.39V201.426Z" fill="black"/>
<path d="M1488.08 313.806L1531.06 176.97H1561.65L1605 313.806H1576.66L1568.03 284.692H1523.74L1514.92 313.806H1488.08ZM1528.43 262.759H1563.15L1545.88 199.097L1528.43 262.759Z" fill="black"/>
<path d="M1345.33 810L1044 366.273L1077.28 332L1345.33 707.637L1605.39 332L1644 366.273L1345.33 810Z" fill="#0F2D53"/>
<path d="M1345.33 707.637L1077.28 332L1345.33 558.205L1605.39 332L1345.33 707.637Z" fill="#1A6983"/>
<path d="M1345.33 436.191L1077.28 332L1345.33 558.205L1605.39 332L1345.33 436.191Z" fill="#6BA543"/>
<path d="M1605.39 332H1077.28L1345.33 436.191L1605.39 332Z" fill="#DAA900"/>
<path d="M1120.73 313.806L1077 178.329L1105.15 177.553L1136.12 289.544L1166.33 177.553L1194.48 178.329L1150.94 313.806H1120.73Z" fill="#0F2D53"/>
<path d="M1215.67 313.806V177.941H1241.38V313.806H1215.67Z" fill="#0F2D53"/>
<path d="M1364.45 182.405L1359.57 203.173C1357.07 202.267 1354.25 201.491 1351.13 200.844C1348 200.067 1344.75 199.421 1341.37 198.903C1338.11 198.385 1334.8 197.997 1331.42 197.738C1328.04 197.48 1324.85 197.35 1321.85 197.35C1313.59 197.35 1307.09 198.709 1302.33 201.426C1297.7 204.014 1295.39 207.961 1295.39 213.266C1295.39 215.854 1296.01 218.183 1297.26 220.253C1298.64 222.194 1300.71 224.07 1303.46 225.882C1306.21 227.693 1309.84 229.44 1314.34 231.122C1318.97 232.804 1324.48 234.551 1330.86 236.363C1337.61 238.304 1343.49 240.568 1348.5 243.156C1353.5 245.615 1357.63 248.397 1360.89 251.502C1364.26 254.607 1366.7 258.231 1368.21 262.371C1369.83 266.382 1370.65 271.041 1370.65 276.346C1370.65 284.757 1368.46 291.873 1364.08 297.696C1359.82 303.519 1353.5 307.983 1345.12 311.088C1336.86 314.194 1326.73 315.747 1314.72 315.747C1310.84 315.747 1306.71 315.553 1302.33 315.164C1297.95 314.776 1293.51 314.259 1289.01 313.612C1284.63 312.835 1280.37 311.929 1276.24 310.894C1272.12 309.859 1268.43 308.695 1265.17 307.401L1270.24 286.827C1273.62 287.991 1277.25 289.091 1281.12 290.126C1285 291.032 1288.94 291.873 1292.95 292.65C1296.95 293.297 1300.96 293.814 1304.96 294.202C1308.96 294.591 1312.72 294.785 1316.22 294.785C1322.35 294.785 1327.48 294.202 1331.61 293.038C1335.74 291.744 1338.8 289.868 1340.8 287.409C1342.93 284.951 1344 281.975 1344 278.481C1344 275.764 1343.18 273.37 1341.56 271.299C1339.93 269.229 1337.49 267.418 1334.24 265.865C1330.98 264.183 1326.79 262.436 1321.66 260.624C1316.66 258.813 1310.78 256.807 1304.02 254.607C1298.02 252.408 1292.76 250.079 1288.26 247.62C1283.88 245.162 1280.25 242.38 1277.37 239.274C1274.49 236.039 1272.3 232.416 1270.8 228.405C1269.43 224.394 1268.74 219.865 1268.74 214.819C1268.74 209.125 1269.8 203.949 1271.93 199.291C1274.06 194.503 1277.25 190.363 1281.5 186.869C1285.88 183.376 1291.38 180.723 1298.02 178.911C1304.77 176.97 1312.65 176 1321.66 176C1327.04 176 1332.36 176.323 1337.61 176.97C1342.99 177.488 1348 178.264 1352.63 179.3C1357.38 180.205 1361.32 181.24 1364.45 182.405Z" fill="#0F2D53"/>
<path d="M1487.39 201.426H1448.17V313.806H1422.45V201.426H1383.04V177.941H1487.39V201.426Z" fill="#0F2D53"/>
<path d="M1488.08 313.806L1531.06 176.97H1561.65L1605 313.806H1576.66L1568.03 284.692H1523.74L1514.92 313.806H1488.08ZM1528.43 262.759H1563.15L1545.88 199.097L1528.43 262.759Z" fill="#0F2D53"/>
<path d="M1714.1 469L1699.19 424.328L1708.79 424.072L1719.35 461L1729.66 424.072L1739.26 424.328L1724.41 469H1714.1ZM1737.6 459.976C1737.6 457.843 1738 456.115 1738.81 454.792C1739.63 453.427 1740.86 452.36 1742.53 451.592C1744.23 450.781 1746.35 450.163 1748.86 449.736C1751.42 449.267 1754.41 448.904 1757.82 448.648V445.448C1757.82 443.912 1757.25 442.781 1756.09 442.056C1754.94 441.288 1753.28 440.904 1751.1 440.904C1750.21 440.904 1749.2 440.947 1748.09 441.032C1746.99 441.117 1745.83 441.267 1744.64 441.48C1743.44 441.693 1742.23 441.992 1740.99 442.376L1739.52 435.592C1741.44 435.037 1743.47 434.589 1745.6 434.248C1747.77 433.907 1749.8 433.736 1751.68 433.736C1755.05 433.736 1757.82 434.184 1760 435.08C1762.17 435.933 1763.77 437.235 1764.8 438.984C1765.87 440.691 1766.4 442.824 1766.4 445.384V459.208C1766.4 460.403 1766.57 461.213 1766.91 461.64C1767.25 462.067 1767.68 462.28 1768.19 462.28C1768.4 462.28 1768.66 462.259 1768.96 462.216C1769.26 462.173 1769.53 462.088 1769.79 461.96L1770.49 468.168C1769.77 468.595 1768.94 468.936 1768 469.192C1767.06 469.491 1766.06 469.64 1764.99 469.64C1763.28 469.64 1761.92 469.299 1760.89 468.616C1759.87 467.891 1759.12 466.803 1758.65 465.352C1757.59 466.163 1756.46 466.909 1755.26 467.592C1754.07 468.232 1752.79 468.723 1751.42 469.064C1750.06 469.448 1748.54 469.64 1746.88 469.64C1745.47 469.64 1744.21 469.427 1743.1 469C1741.99 468.573 1741.01 467.955 1740.16 467.144C1739.35 466.291 1738.71 465.267 1738.24 464.072C1737.81 462.877 1737.6 461.512 1737.6 459.976ZM1746.24 459.4C1746.24 460.893 1746.58 462.024 1747.26 462.792C1747.99 463.517 1748.95 463.88 1750.14 463.88C1751.04 463.88 1751.93 463.731 1752.83 463.432C1753.77 463.133 1754.67 462.749 1755.52 462.28C1756.41 461.768 1757.18 461.171 1757.82 460.488V453.384C1755.99 453.469 1754.35 453.64 1752.89 453.896C1751.49 454.152 1750.27 454.493 1749.25 454.92C1748.27 455.347 1747.52 455.923 1747.01 456.648C1746.49 457.373 1746.24 458.291 1746.24 459.4ZM1782.34 421.64V457.8C1782.34 459.037 1782.47 459.997 1782.72 460.68C1783.02 461.32 1783.41 461.747 1783.88 461.96C1784.39 462.173 1784.94 462.28 1785.54 462.28C1785.97 462.28 1786.44 462.237 1786.95 462.152C1787.46 462.067 1788.01 461.939 1788.61 461.768L1789.38 468.296C1788.53 468.68 1787.57 469 1786.5 469.256C1785.43 469.512 1784.28 469.64 1783.04 469.64C1781.08 469.64 1779.4 469.299 1777.99 468.616C1776.62 467.933 1775.58 466.781 1774.85 465.16C1774.17 463.539 1773.83 461.341 1773.83 458.568V421.64H1782.34ZM1800.65 421.64V457.8C1800.65 459.037 1800.78 459.997 1801.04 460.68C1801.34 461.32 1801.72 461.747 1802.19 461.96C1802.7 462.173 1803.26 462.28 1803.85 462.28C1804.28 462.28 1804.75 462.237 1805.26 462.152C1805.77 462.067 1806.33 461.939 1806.92 461.768L1807.69 468.296C1806.84 468.68 1805.88 469 1804.81 469.256C1803.75 469.512 1802.59 469.64 1801.36 469.64C1799.39 469.64 1797.71 469.299 1796.3 468.616C1794.94 467.933 1793.89 466.781 1793.16 465.16C1792.48 463.539 1792.14 461.341 1792.14 458.568V421.64H1800.65ZM1825.36 469.64C1822.76 469.64 1820.46 469.32 1818.45 468.68C1816.45 467.997 1814.74 466.973 1813.33 465.608C1811.97 464.2 1810.92 462.429 1810.2 460.296C1809.51 458.12 1809.17 455.539 1809.17 452.552C1809.17 449.096 1809.58 446.173 1810.39 443.784C1811.24 441.352 1812.44 439.411 1813.97 437.96C1815.51 436.467 1817.3 435.4 1819.35 434.76C1821.4 434.077 1823.64 433.736 1826.07 433.736C1830.89 433.736 1834.43 434.952 1836.69 437.384C1839 439.816 1840.15 443.784 1840.15 449.288C1840.15 449.672 1840.15 450.163 1840.15 450.76C1840.15 451.357 1840.1 451.933 1840.02 452.488C1839.04 452.573 1837.78 452.68 1836.24 452.808C1834.71 452.936 1832.98 453.064 1831.06 453.192C1829.14 453.32 1827.07 453.427 1824.85 453.512C1822.63 453.597 1820.35 453.683 1818 453.768C1817.96 453.896 1817.94 454.045 1817.94 454.216C1817.94 454.387 1817.94 454.557 1817.94 454.728C1817.94 456.691 1818.26 458.269 1818.9 459.464C1819.58 460.616 1820.58 461.491 1821.91 462.088C1823.23 462.643 1824.89 462.92 1826.9 462.92C1828.18 462.92 1829.48 462.856 1830.8 462.728C1832.17 462.557 1833.51 462.365 1834.84 462.152C1836.2 461.896 1837.52 461.619 1838.8 461.32L1839.83 467.592C1838.46 468.019 1837.01 468.403 1835.48 468.744C1833.94 469.043 1832.34 469.256 1830.68 469.384C1829.01 469.555 1827.24 469.64 1825.36 469.64ZM1818.07 448.264C1819.56 448.264 1820.99 448.243 1822.36 448.2C1823.76 448.115 1825.09 448.051 1826.32 448.008C1827.56 447.923 1828.63 447.859 1829.52 447.816C1830.42 447.731 1831.12 447.667 1831.64 447.624C1831.59 445.747 1831.34 444.232 1830.87 443.08C1830.44 441.928 1829.76 441.096 1828.82 440.584C1827.92 440.072 1826.79 439.816 1825.43 439.816C1824.57 439.816 1823.74 439.944 1822.93 440.2C1822.12 440.456 1821.37 440.904 1820.69 441.544C1820.01 442.184 1819.43 443.037 1818.96 444.104C1818.54 445.171 1818.24 446.557 1818.07 448.264ZM1851.5 482.376L1855.79 469H1854.31L1841.45 434.44L1850.79 434.248L1859.31 461.96L1867.24 434.248L1876.01 434.44L1860.27 482.568L1851.5 482.376ZM1897.53 469V424.2H1906.3V469H1897.53ZM1913.27 469V434.376H1921.01V437.384C1922.42 436.573 1923.76 435.912 1925.04 435.4C1926.32 434.845 1927.58 434.44 1928.82 434.184C1930.1 433.885 1931.44 433.736 1932.85 433.736C1935.07 433.736 1936.9 434.141 1938.35 434.952C1939.85 435.72 1940.96 436.829 1941.68 438.28C1942.41 439.731 1942.77 441.48 1942.77 443.528V469H1934.26V446.216C1934.26 444.424 1933.83 443.101 1932.98 442.248C1932.17 441.352 1930.93 440.904 1929.27 440.904C1928.41 440.904 1927.58 441.011 1926.77 441.224C1925.96 441.395 1925.15 441.629 1924.34 441.928C1923.53 442.227 1922.67 442.611 1921.78 443.08V469H1913.27ZM1947.47 467.656L1948.49 461.384C1949.26 461.64 1950.11 461.896 1951.05 462.152C1951.99 462.365 1952.97 462.557 1954 462.728C1955.06 462.899 1956.11 463.027 1957.13 463.112C1958.16 463.197 1959.12 463.24 1960.01 463.24C1962.06 463.24 1963.55 462.941 1964.49 462.344C1965.43 461.704 1965.9 460.765 1965.9 459.528C1965.9 458.845 1965.71 458.269 1965.33 457.8C1964.98 457.288 1964.43 456.861 1963.66 456.52C1962.94 456.136 1962.02 455.795 1960.91 455.496C1959.84 455.155 1958.61 454.813 1957.2 454.472C1955.7 454.131 1954.4 453.683 1953.29 453.128C1952.18 452.531 1951.22 451.827 1950.41 451.016C1949.65 450.205 1949.07 449.267 1948.69 448.2C1948.34 447.133 1948.17 445.917 1948.17 444.552C1948.17 441.011 1949.33 438.323 1951.63 436.488C1953.93 434.653 1957.35 433.736 1961.87 433.736C1963.28 433.736 1964.6 433.821 1965.84 433.992C1967.07 434.12 1968.25 434.312 1969.36 434.568C1970.51 434.781 1971.55 435.059 1972.49 435.4L1971.41 441.8C1970.47 441.501 1969.53 441.245 1968.59 441.032C1967.65 440.819 1966.63 440.648 1965.52 440.52C1964.45 440.392 1963.23 440.328 1961.87 440.328C1960.03 440.328 1958.65 440.627 1957.71 441.224C1956.77 441.779 1956.3 442.632 1956.3 443.784C1956.3 444.467 1956.47 445.043 1956.81 445.512C1957.15 445.939 1957.65 446.301 1958.29 446.6C1958.93 446.899 1959.71 447.176 1960.65 447.432C1961.59 447.688 1962.64 447.944 1963.79 448.2C1965.37 448.584 1966.8 449.053 1968.08 449.608C1969.36 450.12 1970.45 450.76 1971.34 451.528C1972.28 452.296 1973.01 453.277 1973.52 454.472C1974.07 455.624 1974.35 457.032 1974.35 458.696C1974.35 460.275 1974.09 461.683 1973.58 462.92C1973.11 464.115 1972.43 465.139 1971.53 465.992C1970.64 466.845 1969.59 467.549 1968.4 468.104C1967.2 468.616 1965.88 469 1964.43 469.256C1962.98 469.512 1961.46 469.64 1959.89 469.64C1958.35 469.64 1956.88 469.555 1955.47 469.384C1954.06 469.256 1952.67 469.043 1951.31 468.744C1949.99 468.445 1948.71 468.083 1947.47 467.656ZM1990.87 469.64C1988.65 469.64 1986.78 469.213 1985.24 468.36C1983.75 467.507 1982.62 466.205 1981.85 464.456C1981.12 462.707 1980.76 460.467 1980.76 457.736V440.584H1975.45V434.952L1980.76 434.376L1981.78 426.696H1989.27V434.376H1999.06V440.648H1989.27V457.032C1989.27 458.995 1989.63 460.381 1990.36 461.192C1991.09 462.003 1992.22 462.408 1993.75 462.408C1994.61 462.408 1995.48 462.344 1996.38 462.216C1997.27 462.045 1998.21 461.832 1999.19 461.576L2000.34 468.04C1998.64 468.637 1996.97 469.043 1995.35 469.256C1993.77 469.512 1992.28 469.64 1990.87 469.64ZM2008.43 429.448C2006.64 429.448 2005.34 429.107 2004.52 428.424C2003.76 427.699 2003.37 426.589 2003.37 425.096C2003.37 423.56 2003.76 422.451 2004.52 421.768C2005.34 421.085 2006.64 420.744 2008.43 420.744C2010.22 420.744 2011.5 421.085 2012.27 421.768C2013.08 422.451 2013.48 423.56 2013.48 425.096C2013.48 426.589 2013.08 427.699 2012.27 428.424C2011.5 429.107 2010.22 429.448 2008.43 429.448ZM2004.14 469V434.376H2012.65V469H2004.14ZM2031.87 469.64C2029.65 469.64 2027.78 469.213 2026.24 468.36C2024.75 467.507 2023.62 466.205 2022.85 464.456C2022.12 462.707 2021.76 460.467 2021.76 457.736V440.584H2016.45V434.952L2021.76 434.376L2022.78 426.696H2030.27V434.376H2040.06V440.648H2030.27V457.032C2030.27 458.995 2030.63 460.381 2031.36 461.192C2032.09 462.003 2033.22 462.408 2034.75 462.408C2035.61 462.408 2036.48 462.344 2037.38 462.216C2038.27 462.045 2039.21 461.832 2040.19 461.576L2041.34 468.04C2039.64 468.637 2037.97 469.043 2036.35 469.256C2034.77 469.512 2033.28 469.64 2031.87 469.64ZM2054.94 469.64C2052.93 469.64 2051.18 469.277 2049.69 468.552C2048.19 467.827 2047.04 466.717 2046.23 465.224C2045.42 463.731 2045.02 461.853 2045.02 459.592V434.376H2053.53V457.608C2053.53 459.229 2053.93 460.467 2054.74 461.32C2055.6 462.131 2056.79 462.536 2058.33 462.536C2059.18 462.536 2059.99 462.451 2060.76 462.28C2061.53 462.109 2062.3 461.875 2063.06 461.576C2063.83 461.235 2064.64 460.851 2065.5 460.424V434.376H2074.01V459.464C2074.01 460.189 2074.07 460.765 2074.2 461.192C2074.37 461.619 2074.6 461.939 2074.9 462.152C2075.2 462.323 2075.54 462.408 2075.93 462.408C2076.44 462.408 2076.95 462.301 2077.46 462.088L2078.17 468.168C2077.7 468.467 2077.16 468.723 2076.57 468.936C2075.97 469.149 2075.31 469.32 2074.58 469.448C2073.9 469.576 2073.18 469.64 2072.41 469.64C2071 469.64 2069.8 469.341 2068.82 468.744C2067.84 468.104 2067.07 467.208 2066.52 466.056C2065.28 466.781 2064.04 467.421 2062.81 467.976C2061.57 468.531 2060.31 468.936 2059.03 469.192C2057.75 469.491 2056.39 469.64 2054.94 469.64ZM2093.93 469.64C2091.72 469.64 2089.84 469.213 2088.3 468.36C2086.81 467.507 2085.68 466.205 2084.91 464.456C2084.19 462.707 2083.82 460.467 2083.82 457.736V440.584H2078.51V434.952L2083.82 434.376L2084.85 426.696H2092.33V434.376H2102.13V440.648H2092.33V457.032C2092.33 458.995 2092.7 460.381 2093.42 461.192C2094.15 462.003 2095.28 462.408 2096.81 462.408C2097.67 462.408 2098.54 462.344 2099.44 462.216C2100.33 462.045 2101.27 461.832 2102.25 461.576L2103.41 468.04C2101.7 468.637 2100.04 469.043 2098.41 469.256C2096.84 469.512 2095.34 469.64 2093.93 469.64ZM2121.11 469.64C2118.51 469.64 2116.21 469.32 2114.2 468.68C2112.2 467.997 2110.49 466.973 2109.08 465.608C2107.72 464.2 2106.67 462.429 2105.95 460.296C2105.26 458.12 2104.92 455.539 2104.92 452.552C2104.92 449.096 2105.33 446.173 2106.14 443.784C2106.99 441.352 2108.19 439.411 2109.72 437.96C2111.26 436.467 2113.05 435.4 2115.1 434.76C2117.15 434.077 2119.39 433.736 2121.82 433.736C2126.64 433.736 2130.18 434.952 2132.44 437.384C2134.75 439.816 2135.9 443.784 2135.9 449.288C2135.9 449.672 2135.9 450.163 2135.9 450.76C2135.9 451.357 2135.85 451.933 2135.77 452.488C2134.79 452.573 2133.53 452.68 2131.99 452.808C2130.46 452.936 2128.73 453.064 2126.81 453.192C2124.89 453.32 2122.82 453.427 2120.6 453.512C2118.38 453.597 2116.1 453.683 2113.75 453.768C2113.71 453.896 2113.69 454.045 2113.69 454.216C2113.69 454.387 2113.69 454.557 2113.69 454.728C2113.69 456.691 2114.01 458.269 2114.65 459.464C2115.33 460.616 2116.33 461.491 2117.66 462.088C2118.98 462.643 2120.64 462.92 2122.65 462.92C2123.93 462.92 2125.23 462.856 2126.55 462.728C2127.92 462.557 2129.26 462.365 2130.59 462.152C2131.95 461.896 2133.27 461.619 2134.55 461.32L2135.58 467.592C2134.21 468.019 2132.76 468.403 2131.23 468.744C2129.69 469.043 2128.09 469.256 2126.43 469.384C2124.76 469.555 2122.99 469.64 2121.11 469.64ZM2113.82 448.264C2115.31 448.264 2116.74 448.243 2118.11 448.2C2119.51 448.115 2120.84 448.051 2122.07 448.008C2123.31 447.923 2124.38 447.859 2125.27 447.816C2126.17 447.731 2126.87 447.667 2127.39 447.624C2127.34 445.747 2127.09 444.232 2126.62 443.08C2126.19 441.928 2125.51 441.096 2124.57 440.584C2123.67 440.072 2122.54 439.816 2121.18 439.816C2120.32 439.816 2119.49 439.944 2118.68 440.2C2117.87 440.456 2117.12 440.904 2116.44 441.544C2115.76 442.184 2115.18 443.037 2114.71 444.104C2114.29 445.171 2113.99 446.557 2113.82 448.264ZM2160.95 469V443.336H2155.96V437.64L2160.95 437.064V435.848C2160.95 432.477 2161.44 429.704 2162.43 427.528C2163.41 425.352 2164.84 423.731 2166.71 422.664C2168.59 421.555 2170.87 421 2173.56 421C2175.1 421 2176.59 421.128 2178.04 421.384C2179.49 421.597 2180.99 422.003 2182.52 422.6L2181.37 428.616C2180.39 428.317 2179.39 428.104 2178.36 427.976C2177.38 427.805 2176.44 427.72 2175.55 427.72C2173.5 427.72 2171.94 428.36 2170.87 429.64C2169.85 430.92 2169.34 433.032 2169.34 435.976V437.064H2178.43V443.336H2169.34V469H2160.95ZM2180.23 451.656C2180.23 448.712 2180.49 446.131 2181 443.912C2181.56 441.693 2182.43 439.837 2183.63 438.344C2184.86 436.851 2186.53 435.72 2188.62 434.952C2190.71 434.141 2193.29 433.736 2196.36 433.736C2199.48 433.736 2202.06 434.141 2204.11 434.952C2206.2 435.72 2207.86 436.851 2209.1 438.344C2210.34 439.837 2211.21 441.693 2211.72 443.912C2212.28 446.131 2212.55 448.712 2212.55 451.656C2212.55 454.6 2212.26 457.203 2211.66 459.464C2211.1 461.725 2210.19 463.603 2208.91 465.096C2207.63 466.589 2205.96 467.72 2203.91 468.488C2201.87 469.256 2199.35 469.64 2196.36 469.64C2193.42 469.64 2190.9 469.256 2188.81 468.488C2186.76 467.72 2185.1 466.589 2183.82 465.096C2182.58 463.603 2181.66 461.725 2181.07 459.464C2180.51 457.203 2180.23 454.6 2180.23 451.656ZM2188.94 451.656C2188.94 454.515 2189.19 456.797 2189.71 458.504C2190.22 460.168 2191.03 461.363 2192.14 462.088C2193.25 462.813 2194.66 463.176 2196.36 463.176C2198.15 463.176 2199.58 462.813 2200.65 462.088C2201.76 461.363 2202.55 460.168 2203.02 458.504C2203.53 456.797 2203.79 454.515 2203.79 451.656C2203.79 448.797 2203.55 446.536 2203.08 444.872C2202.66 443.208 2201.89 442.013 2200.78 441.288C2199.71 440.563 2198.24 440.2 2196.36 440.2C2194.53 440.2 2193.06 440.563 2191.95 441.288C2190.88 442.013 2190.11 443.208 2189.64 444.872C2189.17 446.536 2188.94 448.797 2188.94 451.656ZM2225.63 434.376V438.472C2226.83 437.363 2227.94 436.467 2228.96 435.784C2230.03 435.059 2231.1 434.547 2232.16 434.248C2233.27 433.907 2234.42 433.736 2235.62 433.736C2236.39 433.736 2237.15 433.8 2237.92 433.928C2238.73 434.013 2239.52 434.184 2240.29 434.44L2238.95 442.12C2238.18 441.949 2237.39 441.821 2236.58 441.736C2235.81 441.608 2235.09 441.544 2234.4 441.544C2233.17 441.544 2231.89 441.779 2230.56 442.248C2229.24 442.717 2227.85 443.528 2226.4 444.68V469H2217.89V434.376H2225.63ZM1733.88 501.672L1732.22 508.52C1731.36 508.221 1730.4 507.965 1729.34 507.752C1728.27 507.496 1727.16 507.283 1726.01 507.112C1724.9 506.941 1723.77 506.813 1722.62 506.728C1721.46 506.643 1720.38 506.6 1719.35 506.6C1716.54 506.6 1714.32 507.048 1712.7 507.944C1711.12 508.797 1710.33 510.099 1710.33 511.848C1710.33 512.701 1710.54 513.469 1710.97 514.152C1711.44 514.792 1712.14 515.411 1713.08 516.008C1714.02 516.605 1715.26 517.181 1716.79 517.736C1718.37 518.291 1720.25 518.867 1722.42 519.464C1724.73 520.104 1726.73 520.851 1728.44 521.704C1730.15 522.515 1731.55 523.432 1732.66 524.456C1733.82 525.48 1734.65 526.675 1735.16 528.04C1735.71 529.363 1735.99 530.899 1735.99 532.648C1735.99 535.421 1735.25 537.768 1733.75 539.688C1732.3 541.608 1730.15 543.08 1727.29 544.104C1724.47 545.128 1721.02 545.64 1716.92 545.64C1715.6 545.64 1714.19 545.576 1712.7 545.448C1711.2 545.32 1709.69 545.149 1708.15 544.936C1706.66 544.68 1705.21 544.381 1703.8 544.04C1702.39 543.699 1701.13 543.315 1700.02 542.888L1701.75 536.104C1702.9 536.488 1704.14 536.851 1705.46 537.192C1706.79 537.491 1708.13 537.768 1709.5 538.024C1710.86 538.237 1712.23 538.408 1713.59 538.536C1714.96 538.664 1716.24 538.728 1717.43 538.728C1719.52 538.728 1721.27 538.536 1722.68 538.152C1724.09 537.725 1725.13 537.107 1725.82 536.296C1726.54 535.485 1726.9 534.504 1726.9 533.352C1726.9 532.456 1726.63 531.667 1726.07 530.984C1725.52 530.301 1724.69 529.704 1723.58 529.192C1722.47 528.637 1721.04 528.061 1719.29 527.464C1717.58 526.867 1715.58 526.205 1713.27 525.48C1711.22 524.755 1709.43 523.987 1707.9 523.176C1706.4 522.365 1705.17 521.448 1704.18 520.424C1703.2 519.357 1702.46 518.163 1701.94 516.84C1701.47 515.517 1701.24 514.024 1701.24 512.36C1701.24 510.483 1701.6 508.776 1702.33 507.24C1703.05 505.661 1704.14 504.296 1705.59 503.144C1707.09 501.992 1708.96 501.117 1711.22 500.52C1713.53 499.88 1716.22 499.56 1719.29 499.56C1721.12 499.56 1722.94 499.667 1724.73 499.88C1726.56 500.051 1728.27 500.307 1729.85 500.648C1731.47 500.947 1732.81 501.288 1733.88 501.672ZM1750.31 545.64C1748.31 545.64 1746.56 545.277 1745.06 544.552C1743.57 543.827 1742.42 542.717 1741.61 541.224C1740.8 539.731 1740.39 537.853 1740.39 535.592V510.376H1748.9V533.608C1748.9 535.229 1749.31 536.467 1750.12 537.32C1750.97 538.131 1752.17 538.536 1753.7 538.536C1754.56 538.536 1755.37 538.451 1756.13 538.28C1756.9 538.109 1757.67 537.875 1758.44 537.576C1759.21 537.235 1760.02 536.851 1760.87 536.424V510.376H1769.38V535.464C1769.38 536.189 1769.45 536.765 1769.57 537.192C1769.75 537.619 1769.98 537.939 1770.28 538.152C1770.58 538.323 1770.92 538.408 1771.3 538.408C1771.81 538.408 1772.33 538.301 1772.84 538.088L1773.54 544.168C1773.07 544.467 1772.54 544.723 1771.94 544.936C1771.35 545.149 1770.68 545.32 1769.96 545.448C1769.28 545.576 1768.55 545.64 1767.78 545.64C1766.37 545.64 1765.18 545.341 1764.2 544.744C1763.22 544.104 1762.45 543.208 1761.89 542.056C1760.66 542.781 1759.42 543.421 1758.18 543.976C1756.95 544.531 1755.69 544.936 1754.41 545.192C1753.13 545.491 1751.76 545.64 1750.31 545.64ZM1775.47 543.656L1776.49 537.384C1777.26 537.64 1778.11 537.896 1779.05 538.152C1779.99 538.365 1780.97 538.557 1782 538.728C1783.06 538.899 1784.11 539.027 1785.13 539.112C1786.16 539.197 1787.12 539.24 1788.01 539.24C1790.06 539.24 1791.55 538.941 1792.49 538.344C1793.43 537.704 1793.9 536.765 1793.9 535.528C1793.9 534.845 1793.71 534.269 1793.33 533.8C1792.98 533.288 1792.43 532.861 1791.66 532.52C1790.94 532.136 1790.02 531.795 1788.91 531.496C1787.84 531.155 1786.61 530.813 1785.2 530.472C1783.7 530.131 1782.4 529.683 1781.29 529.128C1780.18 528.531 1779.22 527.827 1778.41 527.016C1777.65 526.205 1777.07 525.267 1776.69 524.2C1776.34 523.133 1776.17 521.917 1776.17 520.552C1776.17 517.011 1777.33 514.323 1779.63 512.488C1781.93 510.653 1785.35 509.736 1789.87 509.736C1791.28 509.736 1792.6 509.821 1793.84 509.992C1795.07 510.12 1796.25 510.312 1797.36 510.568C1798.51 510.781 1799.55 511.059 1800.49 511.4L1799.41 517.8C1798.47 517.501 1797.53 517.245 1796.59 517.032C1795.65 516.819 1794.63 516.648 1793.52 516.52C1792.45 516.392 1791.23 516.328 1789.87 516.328C1788.03 516.328 1786.65 516.627 1785.71 517.224C1784.77 517.779 1784.3 518.632 1784.3 519.784C1784.3 520.467 1784.47 521.043 1784.81 521.512C1785.15 521.939 1785.65 522.301 1786.29 522.6C1786.93 522.899 1787.71 523.176 1788.65 523.432C1789.59 523.688 1790.64 523.944 1791.79 524.2C1793.37 524.584 1794.8 525.053 1796.08 525.608C1797.36 526.12 1798.45 526.76 1799.34 527.528C1800.28 528.296 1801.01 529.277 1801.52 530.472C1802.07 531.624 1802.35 533.032 1802.35 534.696C1802.35 536.275 1802.09 537.683 1801.58 538.92C1801.11 540.115 1800.43 541.139 1799.53 541.992C1798.64 542.845 1797.59 543.549 1796.4 544.104C1795.2 544.616 1793.88 545 1792.43 545.256C1790.98 545.512 1789.46 545.64 1787.89 545.64C1786.35 545.64 1784.88 545.555 1783.47 545.384C1782.06 545.256 1780.67 545.043 1779.31 544.744C1777.99 544.445 1776.71 544.083 1775.47 543.656ZM1818.87 545.64C1816.65 545.64 1814.78 545.213 1813.24 544.36C1811.75 543.507 1810.62 542.205 1809.85 540.456C1809.12 538.707 1808.76 536.467 1808.76 533.736V516.584H1803.45V510.952L1808.76 510.376L1809.78 502.696H1817.27V510.376H1827.06V516.648H1817.27V533.032C1817.27 534.995 1817.63 536.381 1818.36 537.192C1819.09 538.003 1820.22 538.408 1821.75 538.408C1822.61 538.408 1823.48 538.344 1824.38 538.216C1825.27 538.045 1826.21 537.832 1827.19 537.576L1828.34 544.04C1826.64 544.637 1824.97 545.043 1823.35 545.256C1821.77 545.512 1820.28 545.64 1818.87 545.64ZM1830.04 535.976C1830.04 533.843 1830.44 532.115 1831.25 530.792C1832.06 529.427 1833.3 528.36 1834.96 527.592C1836.67 526.781 1838.78 526.163 1841.3 525.736C1843.86 525.267 1846.85 524.904 1850.26 524.648V521.448C1850.26 519.912 1849.68 518.781 1848.53 518.056C1847.38 517.288 1845.72 516.904 1843.54 516.904C1842.64 516.904 1841.64 516.947 1840.53 517.032C1839.42 517.117 1838.27 517.267 1837.08 517.48C1835.88 517.693 1834.67 517.992 1833.43 518.376L1831.96 511.592C1833.88 511.037 1835.9 510.589 1838.04 510.248C1840.21 509.907 1842.24 509.736 1844.12 509.736C1847.49 509.736 1850.26 510.184 1852.44 511.08C1854.61 511.933 1856.21 513.235 1857.24 514.984C1858.3 516.691 1858.84 518.824 1858.84 521.384V535.208C1858.84 536.403 1859.01 537.213 1859.35 537.64C1859.69 538.067 1860.12 538.28 1860.63 538.28C1860.84 538.28 1861.1 538.259 1861.4 538.216C1861.69 538.173 1861.97 538.088 1862.23 537.96L1862.93 544.168C1862.21 544.595 1861.37 544.936 1860.44 545.192C1859.5 545.491 1858.49 545.64 1857.43 545.64C1855.72 545.64 1854.36 545.299 1853.33 544.616C1852.31 543.891 1851.56 542.803 1851.09 541.352C1850.03 542.163 1848.89 542.909 1847.7 543.592C1846.51 544.232 1845.23 544.723 1843.86 545.064C1842.49 545.448 1840.98 545.64 1839.32 545.64C1837.91 545.64 1836.65 545.427 1835.54 545C1834.43 544.573 1833.45 543.955 1832.6 543.144C1831.79 542.291 1831.15 541.267 1830.68 540.072C1830.25 538.877 1830.04 537.512 1830.04 535.976ZM1838.68 535.4C1838.68 536.893 1839.02 538.024 1839.7 538.792C1840.43 539.517 1841.39 539.88 1842.58 539.88C1843.48 539.88 1844.37 539.731 1845.27 539.432C1846.21 539.133 1847.1 538.749 1847.96 538.28C1848.85 537.768 1849.62 537.171 1850.26 536.488V529.384C1848.43 529.469 1846.78 529.64 1845.33 529.896C1843.92 530.152 1842.71 530.493 1841.68 530.92C1840.7 531.347 1839.96 531.923 1839.44 532.648C1838.93 533.373 1838.68 534.291 1838.68 535.4ZM1870.74 505.448C1868.95 505.448 1867.65 505.107 1866.84 504.424C1866.07 503.699 1865.69 502.589 1865.69 501.096C1865.69 499.56 1866.07 498.451 1866.84 497.768C1867.65 497.085 1868.95 496.744 1870.74 496.744C1872.53 496.744 1873.81 497.085 1874.58 497.768C1875.39 498.451 1875.8 499.56 1875.8 501.096C1875.8 502.589 1875.39 503.699 1874.58 504.424C1873.81 505.107 1872.53 505.448 1870.74 505.448ZM1866.45 545V510.376H1874.97V545H1866.45ZM1881.64 545V510.376H1889.38V513.384C1890.79 512.573 1892.14 511.912 1893.42 511.4C1894.7 510.845 1895.96 510.44 1897.19 510.184C1898.47 509.885 1899.82 509.736 1901.22 509.736C1903.44 509.736 1905.28 510.141 1906.73 510.952C1908.22 511.72 1909.33 512.829 1910.06 514.28C1910.78 515.731 1911.14 517.48 1911.14 519.528V545H1902.63V522.216C1902.63 520.424 1902.21 519.101 1901.35 518.248C1900.54 517.352 1899.3 516.904 1897.64 516.904C1896.79 516.904 1895.96 517.011 1895.14 517.224C1894.33 517.395 1893.52 517.629 1892.71 517.928C1891.9 518.227 1891.05 518.611 1890.15 519.08V545H1881.64ZM1915.66 535.976C1915.66 533.843 1916.07 532.115 1916.88 530.792C1917.69 529.427 1918.93 528.36 1920.59 527.592C1922.3 526.781 1924.41 526.163 1926.93 525.736C1929.49 525.267 1932.47 524.904 1935.89 524.648V521.448C1935.89 519.912 1935.31 518.781 1934.16 518.056C1933.01 517.288 1931.34 516.904 1929.17 516.904C1928.27 516.904 1927.27 516.947 1926.16 517.032C1925.05 517.117 1923.9 517.267 1922.7 517.48C1921.51 517.693 1920.29 517.992 1919.05 518.376L1917.58 511.592C1919.5 511.037 1921.53 510.589 1923.66 510.248C1925.84 509.907 1927.86 509.736 1929.74 509.736C1933.11 509.736 1935.89 510.184 1938.06 511.08C1940.24 511.933 1941.84 513.235 1942.86 514.984C1943.93 516.691 1944.46 518.824 1944.46 521.384V535.208C1944.46 536.403 1944.63 537.213 1944.97 537.64C1945.31 538.067 1945.74 538.28 1946.25 538.28C1946.47 538.28 1946.72 538.259 1947.02 538.216C1947.32 538.173 1947.6 538.088 1947.85 537.96L1948.56 544.168C1947.83 544.595 1947 544.936 1946.06 545.192C1945.12 545.491 1944.12 545.64 1943.05 545.64C1941.35 545.64 1939.98 545.299 1938.96 544.616C1937.93 543.891 1937.19 542.803 1936.72 541.352C1935.65 542.163 1934.52 542.909 1933.33 543.592C1932.13 544.232 1930.85 544.723 1929.49 545.064C1928.12 545.448 1926.61 545.64 1924.94 545.64C1923.53 545.64 1922.27 545.427 1921.17 545C1920.06 544.573 1919.07 543.955 1918.22 543.144C1917.41 542.291 1916.77 541.267 1916.3 540.072C1915.87 538.877 1915.66 537.512 1915.66 535.976ZM1924.3 535.4C1924.3 536.893 1924.64 538.024 1925.33 538.792C1926.05 539.517 1927.01 539.88 1928.21 539.88C1929.1 539.88 1930 539.731 1930.89 539.432C1931.83 539.133 1932.73 538.749 1933.58 538.28C1934.48 537.768 1935.25 537.171 1935.89 536.488V529.384C1934.05 529.469 1932.41 529.64 1930.96 529.896C1929.55 530.152 1928.33 530.493 1927.31 530.92C1926.33 531.347 1925.58 531.923 1925.07 532.648C1924.56 533.373 1924.3 534.291 1924.3 535.4ZM1952.08 543.976V497.64H1960.59V513.128C1962.38 511.976 1964.13 511.123 1965.84 510.568C1967.59 510.013 1969.34 509.736 1971.09 509.736C1974.97 509.736 1977.91 511.187 1979.92 514.088C1981.97 516.989 1982.99 521.235 1982.99 526.824C1982.99 531.261 1982.39 534.867 1981.2 537.64C1980 540.413 1978.15 542.44 1975.63 543.72C1973.11 545 1969.85 545.64 1965.84 545.64C1963.88 545.64 1961.74 545.491 1959.44 545.192C1957.13 544.893 1954.68 544.488 1952.08 543.976ZM1960.59 538.792C1961.66 539.005 1962.64 539.176 1963.53 539.304C1964.43 539.432 1965.28 539.496 1966.09 539.496C1967.97 539.496 1969.49 539.112 1970.64 538.344C1971.83 537.576 1972.71 536.317 1973.26 534.568C1973.86 532.776 1974.16 530.408 1974.16 527.464C1974.16 524.989 1973.92 522.984 1973.45 521.448C1972.98 519.912 1972.28 518.76 1971.34 517.992C1970.45 517.224 1969.32 516.84 1967.95 516.84C1967.18 516.84 1966.41 516.925 1965.65 517.096C1964.88 517.267 1964.09 517.523 1963.28 517.864C1962.47 518.205 1961.57 518.675 1960.59 519.272V538.792ZM1992.55 505.448C1990.76 505.448 1989.46 505.107 1988.65 504.424C1987.88 503.699 1987.5 502.589 1987.5 501.096C1987.5 499.56 1987.88 498.451 1988.65 497.768C1989.46 497.085 1990.76 496.744 1992.55 496.744C1994.35 496.744 1995.63 497.085 1996.39 497.768C1997.2 498.451 1997.61 499.56 1997.61 501.096C1997.61 502.589 1997.2 503.699 1996.39 504.424C1995.63 505.107 1994.35 505.448 1992.55 505.448ZM1988.27 545V510.376H1996.78V545H1988.27ZM2011.9 497.64V533.8C2011.9 535.037 2012.03 535.997 2012.29 536.68C2012.59 537.32 2012.97 537.747 2013.44 537.96C2013.95 538.173 2014.51 538.28 2015.1 538.28C2015.53 538.28 2016 538.237 2016.51 538.152C2017.02 538.067 2017.58 537.939 2018.17 537.768L2018.94 544.296C2018.09 544.68 2017.13 545 2016.06 545.256C2015 545.512 2013.84 545.64 2012.61 545.64C2010.64 545.64 2008.96 545.299 2007.55 544.616C2006.19 543.933 2005.14 542.781 2004.41 541.16C2003.73 539.539 2003.39 537.341 2003.39 534.568V497.64H2011.9ZM2026.49 505.448C2024.7 505.448 2023.4 505.107 2022.59 504.424C2021.82 503.699 2021.44 502.589 2021.44 501.096C2021.44 499.56 2021.82 498.451 2022.59 497.768C2023.4 497.085 2024.7 496.744 2026.49 496.744C2028.28 496.744 2029.56 497.085 2030.33 497.768C2031.14 498.451 2031.55 499.56 2031.55 501.096C2031.55 502.589 2031.14 503.699 2030.33 504.424C2029.56 505.107 2028.28 505.448 2026.49 505.448ZM2022.2 545V510.376H2030.72V545H2022.2ZM2049.93 545.64C2047.72 545.64 2045.84 545.213 2044.3 544.36C2042.81 543.507 2041.68 542.205 2040.91 540.456C2040.19 538.707 2039.82 536.467 2039.82 533.736V516.584H2034.51V510.952L2039.82 510.376L2040.85 502.696H2048.33V510.376H2058.13V516.648H2048.33V533.032C2048.33 534.995 2048.7 536.381 2049.42 537.192C2050.15 538.003 2051.28 538.408 2052.81 538.408C2053.67 538.408 2054.54 538.344 2055.44 538.216C2056.33 538.045 2057.27 537.832 2058.25 537.576L2059.41 544.04C2057.7 544.637 2056.04 545.043 2054.41 545.256C2052.84 545.512 2051.34 545.64 2049.93 545.64ZM2070 558.376L2074.29 545H2072.81L2059.95 510.44L2069.29 510.248L2077.81 537.96L2085.74 510.248L2094.51 510.44L2078.77 558.568L2070 558.376ZM2092.82 540.2L2100.63 539.944C2100.84 540.627 2101.01 541.373 2101.14 542.184C2101.31 542.952 2101.4 543.805 2101.4 544.744C2101.4 546.195 2101.18 547.667 2100.76 549.16C2100.37 550.653 2099.75 552.083 2098.9 553.448C2098.05 554.813 2096.96 556.115 2095.64 557.352L2089.3 555.816C2090.71 554.28 2091.73 552.509 2092.37 550.504C2093.05 548.541 2093.4 546.621 2093.4 544.744C2093.4 544.189 2093.35 543.507 2093.27 542.696C2093.18 541.885 2093.03 541.053 2092.82 540.2ZM2153.67 507.944H2140.29V545H2131.52V507.944H2118.08V500.2H2153.67V507.944ZM2168.49 545.64C2165.89 545.64 2163.58 545.32 2161.58 544.68C2159.57 543.997 2157.86 542.973 2156.46 541.608C2155.09 540.2 2154.05 538.429 2153.32 536.296C2152.64 534.12 2152.3 531.539 2152.3 528.552C2152.3 525.096 2152.7 522.173 2153.51 519.784C2154.37 517.352 2155.56 515.411 2157.1 513.96C2158.63 512.467 2160.42 511.4 2162.47 510.76C2164.52 510.077 2166.76 509.736 2169.19 509.736C2174.01 509.736 2177.56 510.952 2179.82 513.384C2182.12 515.816 2183.27 519.784 2183.27 525.288C2183.27 525.672 2183.27 526.163 2183.27 526.76C2183.27 527.357 2183.23 527.933 2183.14 528.488C2182.16 528.573 2180.9 528.68 2179.37 528.808C2177.83 528.936 2176.1 529.064 2174.18 529.192C2172.26 529.32 2170.2 529.427 2167.98 529.512C2165.76 529.597 2163.48 529.683 2161.13 529.768C2161.09 529.896 2161.06 530.045 2161.06 530.216C2161.06 530.387 2161.06 530.557 2161.06 530.728C2161.06 532.691 2161.38 534.269 2162.02 535.464C2162.71 536.616 2163.71 537.491 2165.03 538.088C2166.36 538.643 2168.02 538.92 2170.02 538.92C2171.3 538.92 2172.61 538.856 2173.93 538.728C2175.29 538.557 2176.64 538.365 2177.96 538.152C2179.33 537.896 2180.65 537.619 2181.93 537.32L2182.95 543.592C2181.59 544.019 2180.14 544.403 2178.6 544.744C2177.06 545.043 2175.46 545.256 2173.8 545.384C2172.14 545.555 2170.37 545.64 2168.49 545.64ZM2161.19 524.264C2162.69 524.264 2164.12 524.243 2165.48 524.2C2166.89 524.115 2168.21 524.051 2169.45 524.008C2170.69 523.923 2171.75 523.859 2172.65 523.816C2173.54 523.731 2174.25 523.667 2174.76 523.624C2174.72 521.747 2174.46 520.232 2173.99 519.08C2173.57 517.928 2172.88 517.096 2171.94 516.584C2171.05 516.072 2169.92 515.816 2168.55 515.816C2167.7 515.816 2166.87 515.944 2166.06 516.2C2165.25 516.456 2164.5 516.904 2163.82 517.544C2163.13 518.184 2162.56 519.037 2162.09 520.104C2161.66 521.171 2161.36 522.557 2161.19 524.264ZM2187.05 528.168C2187.05 524.072 2187.69 520.659 2188.97 517.928C2190.29 515.197 2192.25 513.149 2194.85 511.784C2197.46 510.419 2200.61 509.736 2204.33 509.736C2205.61 509.736 2206.89 509.8 2208.17 509.928C2209.49 510.013 2210.77 510.163 2212.01 510.376C2213.24 510.547 2214.35 510.781 2215.33 511.08L2214.18 518.184C2213.2 517.971 2212.2 517.8 2211.17 517.672C2210.15 517.501 2209.13 517.373 2208.1 517.288C2207.12 517.203 2206.16 517.16 2205.22 517.16C2203.17 517.16 2201.45 517.565 2200.04 518.376C2198.67 519.144 2197.63 520.339 2196.9 521.96C2196.18 523.539 2195.81 525.565 2195.81 528.04C2195.81 530.344 2196.18 532.264 2196.9 533.8C2197.67 535.293 2198.76 536.424 2200.17 537.192C2201.62 537.917 2203.35 538.28 2205.35 538.28C2206.33 538.28 2207.33 538.259 2208.36 538.216C2209.43 538.131 2210.49 538.003 2211.56 537.832C2212.63 537.661 2213.67 537.469 2214.69 537.256L2215.97 544.04C2214.27 544.509 2212.28 544.893 2210.02 545.192C2207.8 545.491 2205.65 545.64 2203.56 545.64C2198.05 545.64 2193.92 544.232 2191.14 541.416C2188.41 538.557 2187.05 534.141 2187.05 528.168ZM2220.64 545V497.64H2229.22V513.192C2230.5 512.424 2231.71 511.784 2232.86 511.272C2234.02 510.76 2235.19 510.376 2236.38 510.12C2237.62 509.864 2238.9 509.736 2240.22 509.736C2242.4 509.736 2244.21 510.12 2245.66 510.888C2247.16 511.613 2248.29 512.723 2249.06 514.216C2249.82 515.667 2250.21 517.459 2250.21 519.592V545H2241.63V522.216C2241.63 520.424 2241.21 519.101 2240.35 518.248C2239.5 517.395 2238.26 516.968 2236.64 516.968C2235.79 516.968 2234.93 517.075 2234.08 517.288C2233.27 517.459 2232.46 517.693 2231.65 517.992C2230.88 518.291 2230.07 518.653 2229.22 519.08V545H2220.64ZM2256.83 545V510.376H2264.57V513.384C2265.98 512.573 2267.32 511.912 2268.6 511.4C2269.88 510.845 2271.14 510.44 2272.38 510.184C2273.66 509.885 2275 509.736 2276.41 509.736C2278.63 509.736 2280.47 510.141 2281.92 510.952C2283.41 511.72 2284.52 512.829 2285.24 514.28C2285.97 515.731 2286.33 517.48 2286.33 519.528V545H2277.82V522.216C2277.82 520.424 2277.39 519.101 2276.54 518.248C2275.73 517.352 2274.49 516.904 2272.83 516.904C2271.97 516.904 2271.14 517.011 2270.33 517.224C2269.52 517.395 2268.71 517.629 2267.9 517.928C2267.09 518.227 2266.24 518.611 2265.34 519.08V545H2256.83ZM2291.67 527.656C2291.67 524.712 2291.93 522.131 2292.44 519.912C2292.99 517.693 2293.87 515.837 2295.06 514.344C2296.3 512.851 2297.96 511.72 2300.06 510.952C2302.15 510.141 2304.73 509.736 2307.8 509.736C2310.91 509.736 2313.5 510.141 2315.54 510.952C2317.63 511.72 2319.3 512.851 2320.54 514.344C2321.77 515.837 2322.65 517.693 2323.16 519.912C2323.71 522.131 2323.99 524.712 2323.99 527.656C2323.99 530.6 2323.69 533.203 2323.1 535.464C2322.54 537.725 2321.62 539.603 2320.34 541.096C2319.06 542.589 2317.4 543.72 2315.35 544.488C2313.3 545.256 2310.79 545.64 2307.8 545.64C2304.86 545.64 2302.34 545.256 2300.25 544.488C2298.2 543.72 2296.54 542.589 2295.26 541.096C2294.02 539.603 2293.1 537.725 2292.5 535.464C2291.95 533.203 2291.67 530.6 2291.67 527.656ZM2300.38 527.656C2300.38 530.515 2300.63 532.797 2301.14 534.504C2301.66 536.168 2302.47 537.363 2303.58 538.088C2304.68 538.813 2306.09 539.176 2307.8 539.176C2309.59 539.176 2311.02 538.813 2312.09 538.088C2313.2 537.363 2313.99 536.168 2314.46 534.504C2314.97 532.797 2315.22 530.515 2315.22 527.656C2315.22 524.797 2314.99 522.536 2314.52 520.872C2314.09 519.208 2313.32 518.013 2312.22 517.288C2311.15 516.563 2309.68 516.2 2307.8 516.2C2305.96 516.2 2304.49 516.563 2303.38 517.288C2302.32 518.013 2301.55 519.208 2301.08 520.872C2300.61 522.536 2300.38 524.797 2300.38 527.656ZM2337.84 497.64V533.8C2337.84 535.037 2337.97 535.997 2338.22 536.68C2338.52 537.32 2338.91 537.747 2339.38 537.96C2339.89 538.173 2340.44 538.28 2341.04 538.28C2341.47 538.28 2341.94 538.237 2342.45 538.152C2342.96 538.067 2343.51 537.939 2344.11 537.768L2344.88 544.296C2344.03 544.68 2343.07 545 2342 545.256C2340.93 545.512 2339.78 545.64 2338.54 545.64C2336.58 545.64 2334.9 545.299 2333.49 544.616C2332.12 543.933 2331.08 542.781 2330.35 541.16C2329.67 539.539 2329.33 537.341 2329.33 534.568V497.64H2337.84ZM2346.36 527.656C2346.36 524.712 2346.62 522.131 2347.13 519.912C2347.68 517.693 2348.56 515.837 2349.75 514.344C2350.99 512.851 2352.65 511.72 2354.74 510.952C2356.83 510.141 2359.42 509.736 2362.49 509.736C2365.6 509.736 2368.18 510.141 2370.23 510.952C2372.32 511.72 2373.99 512.851 2375.22 514.344C2376.46 515.837 2377.34 517.693 2377.85 519.912C2378.4 522.131 2378.68 524.712 2378.68 527.656C2378.68 530.6 2378.38 533.203 2377.78 535.464C2377.23 537.725 2376.31 539.603 2375.03 541.096C2373.75 542.589 2372.09 543.72 2370.04 544.488C2367.99 545.256 2365.47 545.64 2362.49 545.64C2359.54 545.64 2357.03 545.256 2354.94 544.488C2352.89 543.72 2351.22 542.589 2349.94 541.096C2348.71 539.603 2347.79 537.725 2347.19 535.464C2346.64 533.203 2346.36 530.6 2346.36 527.656ZM2355.06 527.656C2355.06 530.515 2355.32 532.797 2355.83 534.504C2356.34 536.168 2357.15 537.363 2358.26 538.088C2359.37 538.813 2360.78 539.176 2362.49 539.176C2364.28 539.176 2365.71 538.813 2366.78 538.088C2367.88 537.363 2368.67 536.168 2369.14 534.504C2369.66 532.797 2369.91 530.515 2369.91 527.656C2369.91 524.797 2369.68 522.536 2369.21 520.872C2368.78 519.208 2368.01 518.013 2366.9 517.288C2365.84 516.563 2364.36 516.2 2362.49 516.2C2360.65 516.2 2359.18 516.563 2358.07 517.288C2357 518.013 2356.24 519.208 2355.77 520.872C2355.3 522.536 2355.06 524.797 2355.06 527.656ZM2396.51 559.08C2391.47 559.08 2387.65 558.312 2385.05 556.776C2382.49 555.283 2381.21 553.064 2381.21 550.12C2381.21 548.925 2381.4 547.837 2381.79 546.856C2382.21 545.917 2382.83 545.064 2383.64 544.296C2384.5 543.485 2385.54 542.803 2386.78 542.248L2391.58 543.912C2390.9 544.253 2390.3 544.637 2389.79 545.064C2389.28 545.491 2388.89 545.96 2388.64 546.472C2388.38 546.984 2388.25 547.603 2388.25 548.328C2388.25 549.352 2388.55 550.205 2389.15 550.888C2389.74 551.613 2390.7 552.147 2392.03 552.488C2393.35 552.829 2395.06 553 2397.15 553C2399.24 553 2401.01 552.808 2402.46 552.424C2403.95 552.04 2405.08 551.464 2405.85 550.696C2406.62 549.971 2407 549.096 2407 548.072C2407 547.304 2406.83 546.685 2406.49 546.216C2406.19 545.789 2405.62 545.469 2404.76 545.256C2403.95 545.043 2402.84 544.936 2401.44 544.936H2393.88C2391.58 544.936 2389.6 544.659 2387.93 544.104C2386.27 543.507 2384.99 542.632 2384.09 541.48C2383.24 540.328 2382.81 538.941 2382.81 537.32C2382.81 535.571 2383.24 534.12 2384.09 532.968C2384.99 531.773 2386.22 530.749 2387.8 529.896L2392.48 531.368C2391.49 531.837 2390.73 532.349 2390.17 532.904C2389.66 533.459 2389.4 534.163 2389.4 535.016C2389.4 535.912 2389.74 536.616 2390.43 537.128C2391.11 537.64 2392.2 537.896 2393.69 537.896H2404.19C2407.73 537.896 2410.42 538.707 2412.25 540.328C2414.13 541.907 2415.07 544.168 2415.07 547.112C2415.07 549.629 2414.34 551.784 2412.89 553.576C2411.44 555.368 2409.33 556.733 2406.56 557.672C2403.82 558.611 2400.48 559.08 2396.51 559.08ZM2397.34 532.904C2392.69 532.904 2389.17 531.923 2386.78 529.96C2384.39 527.997 2383.2 525.117 2383.2 521.32C2383.2 517.523 2384.39 514.643 2386.78 512.68C2389.17 510.717 2392.69 509.736 2397.34 509.736C2401.99 509.736 2405.51 510.717 2407.9 512.68C2410.33 514.643 2411.55 517.523 2411.55 521.32C2411.55 525.117 2410.33 527.997 2407.9 529.96C2405.51 531.923 2401.99 532.904 2397.34 532.904ZM2397.34 527.336C2399.39 527.336 2400.9 526.888 2401.88 525.992C2402.86 525.053 2403.36 523.496 2403.36 521.32C2403.36 519.144 2402.86 517.587 2401.88 516.648C2400.9 515.709 2399.39 515.24 2397.34 515.24C2395.38 515.24 2393.88 515.709 2392.86 516.648C2391.88 517.587 2391.39 519.144 2391.39 521.32C2391.39 523.496 2391.88 525.053 2392.86 525.992C2393.88 526.888 2395.38 527.336 2397.34 527.336ZM2408.92 517.032L2405.53 512.552C2406.13 511.059 2407.02 509.949 2408.22 509.224C2409.46 508.499 2410.93 508.136 2412.64 508.136C2413.23 508.136 2413.79 508.179 2414.3 508.264C2414.81 508.307 2415.28 508.392 2415.71 508.52L2414.75 515.048C2414.45 514.963 2414.09 514.899 2413.66 514.856C2413.28 514.813 2412.89 514.792 2412.51 514.792C2411.74 514.792 2411.04 514.963 2410.4 515.304C2409.8 515.645 2409.31 516.221 2408.92 517.032ZM2427.19 558.376L2431.47 545H2430L2417.14 510.44L2426.48 510.248L2434.99 537.96L2442.93 510.248L2451.7 510.44L2435.95 558.568L2427.19 558.376ZM1733.37 621.32L1710.26 597.512C1709.24 596.36 1708.41 595.229 1707.77 594.12C1707.13 593.011 1706.66 591.901 1706.36 590.792C1706.1 589.64 1705.98 588.467 1705.98 587.272C1705.98 584.883 1706.47 582.813 1707.45 581.064C1708.47 579.315 1710.03 577.971 1712.12 577.032C1714.21 576.051 1716.9 575.56 1720.18 575.56C1724.54 575.56 1727.82 576.413 1730.04 578.12C1732.26 579.784 1733.37 582.28 1733.37 585.608C1733.37 587.101 1733.13 588.531 1732.66 589.896C1732.19 591.219 1731.45 592.413 1730.42 593.48C1729.4 594.547 1728.03 595.485 1726.33 596.296L1722.94 592.392C1723.87 591.709 1724.58 590.941 1725.05 590.088C1725.52 589.235 1725.75 588.211 1725.75 587.016C1725.75 585.949 1725.56 585.075 1725.18 584.392C1724.79 583.709 1724.19 583.197 1723.38 582.856C1722.62 582.472 1721.63 582.28 1720.44 582.28C1718.52 582.28 1717.09 582.707 1716.15 583.56C1715.21 584.371 1714.74 585.565 1714.74 587.144C1714.74 587.827 1714.85 588.531 1715.06 589.256C1715.28 589.939 1715.62 590.664 1716.09 591.432C1716.6 592.2 1717.28 593.053 1718.14 593.992L1743.29 621L1733.37 621.32ZM1717.24 621.64C1712.16 621.64 1708.17 620.445 1705.27 618.056C1702.41 615.667 1700.98 612.509 1700.98 608.584C1700.98 605.597 1701.71 603.016 1703.16 600.84C1704.65 598.664 1706.94 596.851 1710.01 595.4L1713.98 600.072C1712.35 601.011 1711.14 602.077 1710.33 603.272C1709.56 604.424 1709.18 605.896 1709.18 607.688C1709.18 609.224 1709.54 610.547 1710.26 611.656C1711.03 612.765 1712.1 613.64 1713.46 614.28C1714.83 614.92 1716.43 615.24 1718.26 615.24C1720.23 615.24 1721.85 614.941 1723.13 614.344C1724.41 613.704 1725.45 612.851 1726.26 611.784L1730.42 616.776C1729.27 617.843 1728.01 618.739 1726.65 619.464C1725.28 620.189 1723.81 620.723 1722.23 621.064C1720.7 621.448 1719.03 621.64 1717.24 621.64ZM1735.29 613.576L1730.23 607.624C1730.96 606.728 1731.49 605.683 1731.83 604.488C1732.22 603.293 1732.43 601.971 1732.47 600.52C1732.51 600.008 1732.51 599.517 1732.47 599.048C1732.43 598.579 1732.37 598.109 1732.28 597.64L1739.26 597.512C1739.34 598.067 1739.41 598.621 1739.45 599.176C1739.53 599.731 1739.58 600.371 1739.58 601.096C1739.58 603.443 1739.19 605.683 1738.42 607.816C1737.7 609.907 1736.65 611.827 1735.29 613.576ZM1760.39 621L1775.04 575.88H1785.48L1800.26 621H1790.6L1787.65 611.4H1772.55L1769.54 621H1760.39ZM1774.15 604.168H1785.99L1780.1 583.176L1774.15 604.168ZM1816.95 635.08C1811.91 635.08 1808.09 634.312 1805.49 632.776C1802.93 631.283 1801.65 629.064 1801.65 626.12C1801.65 624.925 1801.84 623.837 1802.23 622.856C1802.65 621.917 1803.27 621.064 1804.08 620.296C1804.93 619.485 1805.98 618.803 1807.22 618.248L1812.02 619.912C1811.33 620.253 1810.74 620.637 1810.23 621.064C1809.71 621.491 1809.33 621.96 1809.07 622.472C1808.82 622.984 1808.69 623.603 1808.69 624.328C1808.69 625.352 1808.99 626.205 1809.59 626.888C1810.18 627.613 1811.14 628.147 1812.47 628.488C1813.79 628.829 1815.49 629 1817.59 629C1819.68 629 1821.45 628.808 1822.9 628.424C1824.39 628.04 1825.52 627.464 1826.29 626.696C1827.06 625.971 1827.44 625.096 1827.44 624.072C1827.44 623.304 1827.27 622.685 1826.93 622.216C1826.63 621.789 1826.05 621.469 1825.2 621.256C1824.39 621.043 1823.28 620.936 1821.87 620.936H1814.32C1812.02 620.936 1810.03 620.659 1808.37 620.104C1806.71 619.507 1805.43 618.632 1804.53 617.48C1803.68 616.328 1803.25 614.941 1803.25 613.32C1803.25 611.571 1803.68 610.12 1804.53 608.968C1805.43 607.773 1806.66 606.749 1808.24 605.896L1812.91 607.368C1811.93 607.837 1811.16 608.349 1810.61 608.904C1810.1 609.459 1809.84 610.163 1809.84 611.016C1809.84 611.912 1810.18 612.616 1810.87 613.128C1811.55 613.64 1812.64 613.896 1814.13 613.896H1824.63C1828.17 613.896 1830.85 614.707 1832.69 616.328C1834.57 617.907 1835.51 620.168 1835.51 623.112C1835.51 625.629 1834.78 627.784 1833.33 629.576C1831.88 631.368 1829.77 632.733 1826.99 633.672C1824.26 634.611 1820.91 635.08 1816.95 635.08ZM1817.78 608.904C1813.13 608.904 1809.61 607.923 1807.22 605.96C1804.83 603.997 1803.63 601.117 1803.63 597.32C1803.63 593.523 1804.83 590.643 1807.22 588.68C1809.61 586.717 1813.13 585.736 1817.78 585.736C1822.43 585.736 1825.95 586.717 1828.34 588.68C1830.77 590.643 1831.99 593.523 1831.99 597.32C1831.99 601.117 1830.77 603.997 1828.34 605.96C1825.95 607.923 1822.43 608.904 1817.78 608.904ZM1817.78 603.336C1819.83 603.336 1821.34 602.888 1822.32 601.992C1823.3 601.053 1823.79 599.496 1823.79 597.32C1823.79 595.144 1823.3 593.587 1822.32 592.648C1821.34 591.709 1819.83 591.24 1817.78 591.24C1815.81 591.24 1814.32 591.709 1813.3 592.648C1812.32 593.587 1811.83 595.144 1811.83 597.32C1811.83 599.496 1812.32 601.053 1813.3 601.992C1814.32 602.888 1815.81 603.336 1817.78 603.336ZM1829.36 593.032L1825.97 588.552C1826.57 587.059 1827.46 585.949 1828.66 585.224C1829.89 584.499 1831.37 584.136 1833.07 584.136C1833.67 584.136 1834.23 584.179 1834.74 584.264C1835.25 584.307 1835.72 584.392 1836.15 584.52L1835.19 591.048C1834.89 590.963 1834.52 590.899 1834.1 590.856C1833.71 590.813 1833.33 590.792 1832.94 590.792C1832.18 590.792 1831.47 590.963 1830.83 591.304C1830.24 591.645 1829.75 592.221 1829.36 593.032ZM1847.76 586.376V590.472C1848.95 589.363 1850.06 588.467 1851.09 587.784C1852.15 587.059 1853.22 586.547 1854.29 586.248C1855.4 585.907 1856.55 585.736 1857.74 585.736C1858.51 585.736 1859.28 585.8 1860.05 585.928C1860.86 586.013 1861.65 586.184 1862.42 586.44L1861.07 594.12C1860.3 593.949 1859.51 593.821 1858.7 593.736C1857.94 593.608 1857.21 593.544 1856.53 593.544C1855.29 593.544 1854.01 593.779 1852.69 594.248C1851.36 594.717 1849.98 595.528 1848.53 596.68V621H1840.02V586.376H1847.76ZM1870.3 581.448C1868.51 581.448 1867.21 581.107 1866.4 580.424C1865.63 579.699 1865.25 578.589 1865.25 577.096C1865.25 575.56 1865.63 574.451 1866.4 573.768C1867.21 573.085 1868.51 572.744 1870.3 572.744C1872.1 572.744 1873.38 573.085 1874.14 573.768C1874.95 574.451 1875.36 575.56 1875.36 577.096C1875.36 578.589 1874.95 579.699 1874.14 580.424C1873.38 581.107 1872.1 581.448 1870.3 581.448ZM1866.02 621V586.376H1874.53V621H1866.02ZM1879.86 604.168C1879.86 600.072 1880.5 596.659 1881.78 593.928C1883.1 591.197 1885.06 589.149 1887.67 587.784C1890.27 586.419 1893.43 585.736 1897.14 585.736C1898.42 585.736 1899.7 585.8 1900.98 585.928C1902.3 586.013 1903.58 586.163 1904.82 586.376C1906.06 586.547 1907.17 586.781 1908.15 587.08L1907 594.184C1906.01 593.971 1905.01 593.8 1903.99 593.672C1902.96 593.501 1901.94 593.373 1900.92 593.288C1899.93 593.203 1898.97 593.16 1898.04 593.16C1895.99 593.16 1894.26 593.565 1892.85 594.376C1891.49 595.144 1890.44 596.339 1889.72 597.96C1888.99 599.539 1888.63 601.565 1888.63 604.04C1888.63 606.344 1888.99 608.264 1889.72 609.8C1890.48 611.293 1891.57 612.424 1892.98 613.192C1894.43 613.917 1896.16 614.28 1898.16 614.28C1899.14 614.28 1900.15 614.259 1901.17 614.216C1902.24 614.131 1903.3 614.003 1904.37 613.832C1905.44 613.661 1906.48 613.469 1907.51 613.256L1908.79 620.04C1907.08 620.509 1905.1 620.893 1902.84 621.192C1900.62 621.491 1898.46 621.64 1896.37 621.64C1890.87 621.64 1886.73 620.232 1883.96 617.416C1881.22 614.557 1879.86 610.141 1879.86 604.168ZM1923.06 621.64C1921.06 621.64 1919.31 621.277 1917.81 620.552C1916.32 619.827 1915.17 618.717 1914.36 617.224C1913.55 615.731 1913.14 613.853 1913.14 611.592V586.376H1921.65V609.608C1921.65 611.229 1922.06 612.467 1922.87 613.32C1923.72 614.131 1924.92 614.536 1926.45 614.536C1927.31 614.536 1928.12 614.451 1928.88 614.28C1929.65 614.109 1930.42 613.875 1931.19 613.576C1931.96 613.235 1932.77 612.851 1933.62 612.424V586.376H1942.13V611.464C1942.13 612.189 1942.2 612.765 1942.32 613.192C1942.5 613.619 1942.73 613.939 1943.03 614.152C1943.33 614.323 1943.67 614.408 1944.05 614.408C1944.56 614.408 1945.08 614.301 1945.59 614.088L1946.29 620.168C1945.82 620.467 1945.29 620.723 1944.69 620.936C1944.1 621.149 1943.43 621.32 1942.71 621.448C1942.03 621.576 1941.3 621.64 1940.53 621.64C1939.12 621.64 1937.93 621.341 1936.95 620.744C1935.97 620.104 1935.2 619.208 1934.64 618.056C1933.41 618.781 1932.17 619.421 1930.93 619.976C1929.7 620.531 1928.44 620.936 1927.16 621.192C1925.88 621.491 1924.51 621.64 1923.06 621.64ZM1958.4 573.64V609.8C1958.4 611.037 1958.53 611.997 1958.79 612.68C1959.09 613.32 1959.47 613.747 1959.94 613.96C1960.45 614.173 1961.01 614.28 1961.6 614.28C1962.03 614.28 1962.5 614.237 1963.01 614.152C1963.52 614.067 1964.08 613.939 1964.67 613.768L1965.44 620.296C1964.59 620.68 1963.63 621 1962.56 621.256C1961.5 621.512 1960.34 621.64 1959.11 621.64C1957.14 621.64 1955.46 621.299 1954.05 620.616C1952.69 619.933 1951.64 618.781 1950.91 617.16C1950.23 615.539 1949.89 613.341 1949.89 610.568V573.64H1958.4ZM1979.68 621.64C1977.47 621.64 1975.59 621.213 1974.05 620.36C1972.56 619.507 1971.43 618.205 1970.66 616.456C1969.94 614.707 1969.57 612.467 1969.57 609.736V592.584H1964.26V586.952L1969.57 586.376L1970.6 578.696H1978.08V586.376H1987.88V592.648H1978.08V609.032C1978.08 610.995 1978.45 612.381 1979.17 613.192C1979.9 614.003 1981.03 614.408 1982.56 614.408C1983.42 614.408 1984.29 614.344 1985.19 614.216C1986.08 614.045 1987.02 613.832 1988 613.576L1989.16 620.04C1987.45 620.637 1985.79 621.043 1984.16 621.256C1982.59 621.512 1981.09 621.64 1979.68 621.64ZM2002.75 621.64C2000.74 621.64 1998.99 621.277 1997.5 620.552C1996.01 619.827 1994.85 618.717 1994.04 617.224C1993.23 615.731 1992.83 613.853 1992.83 611.592V586.376H2001.34V609.608C2001.34 611.229 2001.75 612.467 2002.56 613.32C2003.41 614.131 2004.6 614.536 2006.14 614.536C2006.99 614.536 2007.8 614.451 2008.57 614.28C2009.34 614.109 2010.11 613.875 2010.88 613.576C2011.64 613.235 2012.45 612.851 2013.31 612.424V586.376H2021.82V611.464C2021.82 612.189 2021.88 612.765 2022.01 613.192C2022.18 613.619 2022.42 613.939 2022.72 614.152C2023.01 614.323 2023.36 614.408 2023.74 614.408C2024.25 614.408 2024.76 614.301 2025.28 614.088L2025.98 620.168C2025.51 620.467 2024.98 620.723 2024.38 620.936C2023.78 621.149 2023.12 621.32 2022.4 621.448C2021.71 621.576 2020.99 621.64 2020.22 621.64C2018.81 621.64 2017.62 621.341 2016.64 620.744C2015.65 620.104 2014.89 619.208 2014.33 618.056C2013.09 618.781 2011.86 619.421 2010.62 619.976C2009.38 620.531 2008.12 620.936 2006.84 621.192C2005.56 621.491 2004.2 621.64 2002.75 621.64ZM2037.32 586.376V590.472C2038.52 589.363 2039.63 588.467 2040.65 587.784C2041.72 587.059 2042.78 586.547 2043.85 586.248C2044.96 585.907 2046.11 585.736 2047.31 585.736C2048.07 585.736 2048.84 585.8 2049.61 585.928C2050.42 586.013 2051.21 586.184 2051.98 586.44L2050.63 594.12C2049.87 593.949 2049.08 593.821 2048.27 593.736C2047.5 593.608 2046.77 593.544 2046.09 593.544C2044.85 593.544 2043.57 593.779 2042.25 594.248C2040.93 594.717 2039.54 595.528 2038.09 596.68V621H2029.58V586.376H2037.32ZM2068.55 621.64C2065.95 621.64 2063.64 621.32 2061.64 620.68C2059.63 619.997 2057.93 618.973 2056.52 617.608C2055.15 616.2 2054.11 614.429 2053.38 612.296C2052.7 610.12 2052.36 607.539 2052.36 604.552C2052.36 601.096 2052.76 598.173 2053.58 595.784C2054.43 593.352 2055.62 591.411 2057.16 589.96C2058.7 588.467 2060.49 587.4 2062.54 586.76C2064.58 586.077 2066.82 585.736 2069.26 585.736C2074.08 585.736 2077.62 586.952 2079.88 589.384C2082.18 591.816 2083.34 595.784 2083.34 601.288C2083.34 601.672 2083.34 602.163 2083.34 602.76C2083.34 603.357 2083.29 603.933 2083.21 604.488C2082.23 604.573 2080.97 604.68 2079.43 604.808C2077.9 604.936 2076.17 605.064 2074.25 605.192C2072.33 605.32 2070.26 605.427 2068.04 605.512C2065.82 605.597 2063.54 605.683 2061.19 605.768C2061.15 605.896 2061.13 606.045 2061.13 606.216C2061.13 606.387 2061.13 606.557 2061.13 606.728C2061.13 608.691 2061.45 610.269 2062.09 611.464C2062.77 612.616 2063.77 613.491 2065.1 614.088C2066.42 614.643 2068.08 614.92 2070.09 614.92C2071.37 614.92 2072.67 614.856 2073.99 614.728C2075.36 614.557 2076.7 614.365 2078.02 614.152C2079.39 613.896 2080.71 613.619 2081.99 613.32L2083.02 619.592C2081.65 620.019 2080.2 620.403 2078.66 620.744C2077.13 621.043 2075.53 621.256 2073.86 621.384C2072.2 621.555 2070.43 621.64 2068.55 621.64ZM2061.26 600.264C2062.75 600.264 2064.18 600.243 2065.54 600.2C2066.95 600.115 2068.27 600.051 2069.51 600.008C2070.75 599.923 2071.82 599.859 2072.71 599.816C2073.61 599.731 2074.31 599.667 2074.82 599.624C2074.78 597.747 2074.52 596.232 2074.06 595.08C2073.63 593.928 2072.95 593.096 2072.01 592.584C2071.11 592.072 2069.98 591.816 2068.62 591.816C2067.76 591.816 2066.93 591.944 2066.12 592.2C2065.31 592.456 2064.56 592.904 2063.88 593.544C2063.2 594.184 2062.62 595.037 2062.15 596.104C2061.72 597.171 2061.43 598.557 2061.26 600.264Z" fill="#0F2D53"/>
<path d="M885 161V776" stroke="#8E8E8E" stroke-width="3" stroke-linecap="round"/>
<g clip-path="url(#clip0_370_337)">
<path d="M669.996 584.614L555.903 535.139V338.545L454.84 538.358H372.364L267.401 336.986V535.139L153.309 584.614V176.31H303.647L411.627 365.232L519.105 176.31H669.996V584.614Z" fill="#002856"/>
<path d="M669.997 150H519.106H503.813L496.242 163.306L411.578 312.109L326.486 163.255L318.915 150H303.648H153.31H127V176.31V584.614V624.708L163.773 608.761L277.866 559.26L293.712 552.394V535.139V444.388L349.023 550.507L356.393 564.668H372.34H454.816H470.989L478.283 550.23L529.57 448.84V535.114V552.368L545.416 559.235L659.509 608.736L696.282 624.683V584.589V176.31V150H669.997ZM683.152 176.31V584.614V604.661L664.766 596.688L550.673 547.187L542.75 543.741V535.114V393.705L466.562 544.294L462.915 551.513H454.816H372.365H364.392L360.694 544.445L280.583 390.687V535.139V543.766L272.66 547.212L158.567 596.713L140.18 604.686V584.639V176.31V163.155H153.335H303.673H311.294L315.092 169.77L411.628 338.671L507.687 169.82L511.46 163.155H519.106H669.997H683.152V176.31Z" fill="#002856"/>
<path d="M669.999 163.155H519.107H511.461L507.688 169.795L411.63 338.671L315.068 169.77L311.27 163.155H303.624H153.311H140.156V176.31V584.614V604.661L158.543 596.687L272.636 547.212L280.559 543.766V535.139V390.686L360.695 544.42L364.393 551.488H372.366H454.842H462.916L466.563 544.269L542.726 393.68V535.114V543.741L550.649 547.187L664.742 596.662L683.128 604.636V584.589V176.31V163.155H669.999ZM669.999 584.614L555.906 535.114V338.545L454.842 538.358H372.366L267.404 336.985V535.139L153.311 584.639V176.31H303.649L411.63 365.232L519.107 176.31H669.999V584.614Z" fill="white"/>
<path d="M411.629 365.232L519.107 176.31H669.998V584.614L555.905 535.139V338.545L454.841 538.358H411.654L411.629 365.232Z" fill="#DAA900"/>
<path d="M147.525 651.747V752.484C147.525 761.815 151.625 765.161 158.164 765.161C164.704 765.161 168.804 761.815 168.804 752.484V651.747H188.197V751.176C188.197 772.078 177.758 784 157.586 784C137.413 784 127 772.078 127 751.176V651.747H147.525Z" fill="#DAA900"/>
<path d="M257.947 733.644V751C257.947 771.902 247.508 783.849 227.361 783.849C207.214 783.849 196.75 771.902 196.75 751V683.087C196.75 662.185 207.188 650.263 227.361 650.263C247.508 650.263 257.947 662.21 257.947 683.087V695.764H238.554V681.779C238.554 672.448 234.454 668.901 227.914 668.901C221.375 668.901 217.275 672.448 217.275 681.779V752.308C217.275 761.639 221.375 764.985 227.914 764.985C234.454 764.985 238.554 761.614 238.554 752.308V733.644H257.947Z" fill="#DAA900"/>
<path d="M310.189 744.46L324.174 651.747H352.722V782.34H333.329V688.671L319.143 782.34H299.725L284.432 689.979V782.34H266.523V651.747H295.072L310.189 744.46Z" fill="#002856"/>
<path d="M384.411 706.781H412.582V725.419H384.411V763.677H419.877V782.34H363.887V651.747H419.877V670.385H384.411V706.781Z" fill="#002856"/>
<path d="M471.719 782.34C470.612 778.969 469.858 776.932 469.858 766.292V745.768C469.858 733.644 465.758 729.167 456.426 729.167H449.333V782.34H428.809V651.747H459.772C481.051 651.747 490.181 661.632 490.181 681.779V692.042C490.181 705.473 485.88 714.251 476.75 718.527C487.012 722.828 490.383 732.714 490.383 746.321V766.468C490.383 772.807 490.559 777.485 492.621 782.315H471.719V782.34ZM449.333 670.385V710.504H457.357C465.003 710.504 469.682 707.158 469.682 696.695V683.817C469.682 674.485 466.513 670.385 459.243 670.385H449.333Z" fill="#002856"/>
<path d="M559.576 733.644V751C559.576 771.902 549.137 783.849 528.99 783.849C508.842 783.849 498.379 771.902 498.379 751V683.087C498.379 662.185 508.817 650.263 528.99 650.263C549.162 650.263 559.576 662.21 559.576 683.087V695.764H540.183V681.779C540.183 672.448 536.083 668.901 529.543 668.901C523.003 668.901 518.904 672.448 518.904 681.779V752.308C518.904 761.639 523.003 764.985 529.543 764.985C536.083 764.985 540.183 761.614 540.183 752.308V733.644H559.576Z" fill="#002856"/>
<path d="M588.853 706.781H617.024V725.419H588.853V763.677H624.318V782.34H568.328V651.747H624.318V670.385H588.853V706.781Z" fill="#002856"/>
<path d="M633.25 651.747H665.722C686.247 651.747 696.308 663.141 696.308 684.018V750.069C696.308 770.971 686.222 782.34 665.722 782.34H633.25V651.747ZM653.775 670.385V763.677H665.345C671.885 763.677 675.783 760.306 675.783 751V683.087C675.783 673.755 671.859 670.41 665.345 670.41H653.775V670.385Z" fill="#002856"/>
</g>
<defs>
<clipPath id="clip0_370_337">
<rect width="569.307" height="634" fill="white" transform="translate(127 150)"/>
</clipPath>
</defs>
</svg>
